<?xml version="1.0" encoding="UTF-8" standalone="no"?>
<svg
   xmlns:dc="http://purl.org/dc/elements/1.1/"
   xmlns:cc="http://creativecommons.org/ns#"
   xmlns:rdf="http://www.w3.org/1999/02/22-rdf-syntax-ns#"
   xmlns:svg="http://www.w3.org/2000/svg"
   xmlns="http://www.w3.org/2000/svg"
   xmlns:xlink="http://www.w3.org/1999/xlink"
   xmlns:sodipodi="http://sodipodi.sourceforge.net/DTD/sodipodi-0.dtd"
   xmlns:inkscape="http://www.inkscape.org/namespaces/inkscape"
   width="1280"
   height="720"
   viewBox="0 0 338.66666 190.50001"
   version="1.1"
   id="svg8"
   inkscape:version="1.0.2 (e86c870879, 2021-01-15)"
   sodipodi:docname="splash.svg"
   inkscape:export-filename=""
   inkscape:export-xdpi="144"
   inkscape:export-ydpi="144">
  <defs
     id="defs2">
    <linearGradient
       id="linearGradient28">
      <stop
         style="stop-color:#c87137;stop-opacity:1"
         offset="0"
         id="stop24" />
      <stop
         style="stop-color:#ffe680;stop-opacity:1"
         offset="1"
         id="stop26" />
    </linearGradient>
    <linearGradient
       id="linearGradient16">
      <stop
         style="stop-color:#ffd42a;stop-opacity:1;"
         offset="0"
         id="stop12" />
      <stop
         style="stop-color:#aade87;stop-opacity:1"
         offset="1"
         id="stop14" />
    </linearGradient>
    <linearGradient
       xlink:href="#linearGradient16"
       id="linearGradient18"
       x1="50.305737"
       y1="62.33997"
       x2="17.427603"
       y2="5.3933673"
       gradientUnits="userSpaceOnUse" />
    <linearGradient
       xlink:href="#linearGradient28"
       id="linearGradient22"
       gradientUnits="userSpaceOnUse"
       x1="50.305737"
       y1="62.33997"
       x2="17.427603"
       y2="5.3933673" />
  </defs>
  <sodipodi:namedview
     id="base"
     pagecolor="#ffffff"
     bordercolor="#666666"
     borderopacity="1.0"
     inkscape:pageopacity="0.0"
     inkscape:pageshadow="2"
     inkscape:zoom="1.1305556"
     inkscape:cx="640"
     inkscape:cy="360"
     inkscape:document-units="px"
     inkscape:current-layer="layer1"
     inkscape:document-rotation="0"
     showgrid="false"
     units="px"
     inkscape:window-width="1920"
     inkscape:window-height="1011"
     inkscape:window-x="0"
     inkscape:window-y="0"
     inkscape:window-maximized="1" />
  <metadata
     id="metadata5">
    <rdf:RDF>
      <cc:Work
         rdf:about="">
        <dc:format>image/svg+xml</dc:format>
        <dc:type
           rdf:resource="http://purl.org/dc/dcmitype/StillImage" />
        <dc:title></dc:title>
      </cc:Work>
    </rdf:RDF>
  </metadata>
  <g
     inkscape:label="Layer 1"
     inkscape:groupmode="layer"
     id="layer1">
    <rect
       style="fill:#333333;stroke-width:1.03207"
       id="rect10"
       width="338.66669"
       height="190.5"
       x="0"
       y="0" />
    <g
       id="g478">
      <rect
         style="fill:#666666;stroke-width:0.264583"
         id="rect331"
         width="52.846706"
         height="19.049995"
         x="134.98834"
         y="113.77878"
         ry="5.291667" />
      <text
         xml:space="preserve"
         style="font-size:33.8667px;line-height:1.25;font-family:Jost;-inkscape-font-specification:Jost;fill:#ffffff;stroke-width:0.264583"
         x="135.32402"
         y="81.974281"
         id="text14"><tspan
           sodipodi:role="line"
           id="tspan12"
           x="135.32402"
           y="81.974281"
           style="font-style:normal;font-variant:normal;font-weight:normal;font-stretch:normal;font-size:33.8667px;font-family:'Barlow Black';-inkscape-font-specification:'Barlow Black, ';fill:#ffffff;stroke-width:0.264583">Carambola</tspan></text>
      <g
         id="layer1-0"
         transform="matrix(1.3786446,0,0,1.3786446,28.783598,47.4656)">
        <path
           style="opacity:1;fill:url(#linearGradient18);stroke-width:0.264583"
           id="path10"
           d="M 50.305735,62.33997 33.866669,49.990665 17.427599,62.339969 19.902878,41.928667 0.98853302,33.866667 19.902878,25.804671 17.427602,5.3933672 33.866668,17.742672 50.305738,5.3933688 47.830459,25.80467 l 18.914345,8.062 -18.914344,8.061997 z"
           transform="matrix(0.92416961,0,0,0.98315197,2.5681226,0.57058734)" />
        <path
           style="opacity:1;fill:url(#linearGradient22);stroke-width:0.264583"
           id="path20"
           d="M 50.305735,62.33997 33.866669,49.990665 17.427599,62.339969 19.902878,41.928667 0.98853302,33.866667 19.902878,25.804671 17.427602,5.3933672 33.866668,17.742672 50.305738,5.3933688 47.830459,25.80467 l 18.914345,8.062 -18.914344,8.061997 z"
           transform="matrix(0.92416961,0,0,0.98315197,4.1556227,2.1580874)" />
        <path
           style="fill:#28170b;stroke:none;stroke-width:0.0577985px;stroke-linecap:butt;stroke-linejoin:miter;stroke-opacity:1"
           d="m 37.6653,32.835826 c 0,0 3.870105,-3.003944 5.093932,-5.060953 0.400396,-0.672981 0.952821,-1.528384 0.659961,-2.254646 -0.336318,-0.834034 -1.456304,-1.494937 -2.342008,-1.339216 -0.754021,0.13257 -1.126608,1.075476 -1.485367,1.751802 -1.119482,2.110395 -1.926518,6.903013 -1.926518,6.903013 z"
           id="path30" />
        <path
           style="fill:#28170b;stroke:none;stroke-width:0.0577985px;stroke-linecap:butt;stroke-linejoin:miter;stroke-opacity:1"
           d="m 38.040535,35.258602 c 0,0 4.426885,2.09859 6.81479,2.262747 0.78124,0.05371 1.793871,0.160793 2.309892,-0.428228 0.592594,-0.676427 0.67712,-1.974124 0.138554,-2.69431 -0.458495,-0.61311 -1.468082,-0.520222 -2.233522,-0.535263 -2.388473,-0.04695 -7.029714,1.395054 -7.029714,1.395054 z"
           id="path32" />
        <path
           style="fill:#28170b;stroke:none;stroke-width:0.0577985px;stroke-linecap:butt;stroke-linejoin:miter;stroke-opacity:1"
           d="m 34.713033,35.423429 c 0,0 -4.496137,-1.9458 -6.888262,-2.028108 -0.782621,-0.02693 -1.798324,-0.09928 -2.293877,0.50706 -0.569089,0.696318 -0.609137,1.996148 -0.04623,2.697473 0.479218,0.597054 1.485032,0.469655 2.250538,0.458486 2.38868,-0.03485 6.977832,-1.634907 6.977832,-1.634907 z"
           id="path34" />
        <path
           style="fill:#28170b;stroke:none;stroke-width:0.0577985px;stroke-linecap:butt;stroke-linejoin:miter;stroke-opacity:1"
           d="m 35.750354,32.827967 c 0,0 -1.09326,-4.775581 -2.442955,-6.752286 -0.441571,-0.646711 -0.98451,-1.508167 -1.766549,-1.548639 -0.898088,-0.04648 -1.969419,0.690686 -2.20145,1.559526 -0.197532,0.739664 0.500545,1.474907 0.962697,2.085268 1.442082,1.904575 5.448257,4.656131 5.448257,4.656131 z"
           id="path36" />
        <path
           style="fill:#28170b;stroke:none;stroke-width:0.0577985px;stroke-linecap:butt;stroke-linejoin:miter;stroke-opacity:1"
           d="m 35.865481,37.121212 c 0,0 -4.116012,2.657034 -5.513601,4.600171 -0.457245,0.635726 -1.081762,1.440006 -0.852985,2.188926 0.262728,0.860056 1.321185,1.615589 2.217057,1.537257 0.762676,-0.06669 1.215623,-0.973733 1.631682,-1.616399 1.298267,-2.00537 2.517851,-6.709954 2.517851,-6.709954 z"
           id="path38" />
        <path
           style="fill:#28170b;stroke:none;stroke-width:0.0577985px;stroke-linecap:butt;stroke-linejoin:miter;stroke-opacity:1"
           d="m 37.387588,37.121212 c 0,0 4.116012,2.657034 5.513601,4.600171 0.457245,0.635726 1.081762,1.440006 0.852985,2.188926 -0.262728,0.860056 -1.321185,1.615589 -2.217057,1.537257 -0.762676,-0.06669 -1.215623,-0.973733 -1.631682,-1.616399 -1.298267,-2.00537 -2.517851,-6.709954 -2.517851,-6.709954 z"
           id="path40" />
      </g>
      <text
         xml:space="preserve"
         style="font-size:16.9333px;line-height:1.25;font-family:Jost;-inkscape-font-specification:Jost;fill:#ffffff;stroke-width:0.264583"
         x="135.32402"
         y="104.72844"
         id="text297"><tspan
           sodipodi:role="line"
           id="tspan295"
           x="135.32402"
           y="104.72844"
           style="font-style:normal;font-variant:normal;font-weight:normal;font-stretch:normal;font-size:16.9333px;font-family:Barlow;-inkscape-font-specification:Barlow;fill:#ffffff;stroke-width:0.264583">Smash Hit Level Editor</tspan></text>
      <text
         xml:space="preserve"
         style="font-size:12.7px;line-height:1.25;font-family:Jost;-inkscape-font-specification:Jost;text-align:center;text-anchor:middle;fill:#ffffff;stroke-width:0.264583"
         x="161.40942"
         y="127.77402"
         id="text329"><tspan
           sodipodi:role="line"
           id="tspan327"
           x="161.40942"
           y="127.77402"
           style="font-style:normal;font-variant:normal;font-weight:normal;font-stretch:normal;font-size:12.7px;font-family:Barlow;-inkscape-font-specification:Barlow;text-align:center;text-anchor:middle;fill:#ffffff;stroke-width:0.264583">ALPHA</tspan></text>
      <text
         xml:space="preserve"
         style="font-size:7.05556px;line-height:1.25;font-family:Jost;-inkscape-font-specification:Jost;text-align:center;text-anchor:middle;fill:#ffffff;stroke-width:0.264583"
         x="195.50069"
         y="120.36568"
         id="text371"><tspan
           sodipodi:role="line"
           id="tspan369"
           x="195.50069"
           y="120.36568"
           style="font-style:normal;font-variant:normal;font-weight:normal;font-stretch:normal;font-size:7.05556px;font-family:Barlow;-inkscape-font-specification:Barlow;text-align:start;text-anchor:start;fill:#ffffff;stroke-width:0.264583">Features in this version of the editor</tspan><tspan
           sodipodi:role="line"
           x="195.50069"
           y="129.84023"
           style="font-style:normal;font-variant:normal;font-weight:normal;font-stretch:normal;font-size:7.05556px;font-family:Barlow;-inkscape-font-specification:Barlow;text-align:start;text-anchor:start;fill:#ffffff;stroke-width:0.264583"
           id="tspan373">may or may not be in the final.</tspan></text>
    </g>
    <text
       xml:space="preserve"
       style="font-size:12.7px;line-height:1.25;font-family:Jost;-inkscape-font-specification:Jost;text-align:center;text-anchor:middle;fill:#ffffff;stroke-width:0.264583"
       x="169.09204"
       y="179.33894"
       id="text438"><tspan
         id="tspan436"
         x="169.09204"
         y="179.33894"
         style="font-style:normal;font-variant:normal;font-weight:normal;font-stretch:normal;font-family:'Barlow Light';-inkscape-font-specification:'Barlow Light, ';text-align:center;text-anchor:middle;fill:#ffffff;stroke-width:0.264583"
         sodipodi:role="line">PLEASE WAIT</tspan></text>
  </g>
</svg>
